<svg width="24" height="22" viewBox="0 0 24 22" fill="none" xmlns="http://www.w3.org/2000/svg">
<path fill-rule="evenodd" clip-rule="evenodd" d="M18 6.5C18 9.8137 15.3137 12.5 12 12.5C8.68624 12.5 5.99994 9.8137 5.99994 6.5C5.99994 3.18629 8.68624 0.5 12 0.5C15.3137 0.5 18 3.18629 18 6.5ZM16 6.5C16 8.70914 14.2091 10.5 12 10.5C9.79081 10.5 7.99994 8.70914 7.99994 6.5C7.99994 4.29086 9.79081 2.5 12 2.5C14.2091 2.5 16 4.29086 16 6.5Z" fill="white"/>
<path d="M1.49996 21.5C2.41188 21.9104 2.41148 21.9113 2.41148 21.9113L2.41263 21.9089C2.41546 21.9029 2.42089 21.8915 2.42899 21.875C2.4452 21.8422 2.47204 21.7893 2.51006 21.7193C2.58617 21.5791 2.70665 21.3709 2.87576 21.1172C3.21464 20.6089 3.74432 19.9248 4.49763 19.2399C5.99185 17.8816 8.38448 16.5 12 16.5C15.6154 16.5 18.0081 17.8816 19.5023 19.2399C20.2556 19.9248 20.7853 20.6089 21.1242 21.1172C21.2933 21.3709 21.4137 21.5791 21.4899 21.7193C21.5279 21.7893 21.5547 21.8422 21.5709 21.875C21.579 21.8915 21.5845 21.9029 21.5873 21.9089L21.5884 21.9113C21.5884 21.9113 21.588 21.9104 22.5 21.5C23.4119 21.0896 23.4114 21.0886 23.4114 21.0886L23.4109 21.0874L23.4096 21.0847L23.4064 21.0775L23.3967 21.0567C23.3888 21.04 23.3781 21.0177 23.3645 20.9902C23.3374 20.9352 23.2986 20.8591 23.2476 20.7651C23.1455 20.5772 22.9942 20.3166 22.7883 20.0078C22.3771 19.3911 21.7443 18.5752 20.8476 17.7601C19.0419 16.1184 16.1845 14.5 12 14.5C7.81543 14.5 4.95806 16.1184 3.15228 17.7601C2.25559 18.5752 1.62277 19.3911 1.21166 20.0078C1.00576 20.3166 0.854366 20.5772 0.752354 20.7651C0.701314 20.8591 0.662531 20.9352 0.635378 20.9902C0.621798 21.0177 0.611116 21.04 0.603254 21.0567L0.593563 21.0775L0.590283 21.0847L0.589031 21.0874L0.588501 21.0886C0.588501 21.0886 0.588036 21.0896 1.49996 21.5Z" fill="white"/>
</svg>
