<svg width="24" height="24" viewBox="0 0 24 24" fill="none" xmlns="http://www.w3.org/2000/svg">
<path fill-rule="evenodd" clip-rule="evenodd" d="M0.299988 2.7C0.299988 2.20295 0.70293 1.8 1.19999 1.8H3.25583C4.3789 1.8 5.38471 2.49522 5.7816 3.54582L6.25583 4.80107C6.27017 4.80037 6.28469 4.80002 6.29921 4.8L20.4056 4.78801C22.3297 4.78637 23.638 6.74052 22.9033 8.51892L20.5818 14.1383C20.3091 14.7986 19.7195 15.2749 19.0166 15.4027L11.2367 16.8172C9.95441 17.0503 8.68859 16.3342 8.22797 15.1149L4.09775 4.18194C3.96545 3.83174 3.63019 3.6 3.25583 3.6H1.19999C0.70293 3.6 0.299988 3.19706 0.299988 2.7ZM6.93521 6.59946L9.91181 14.4788C10.0653 14.8852 10.4873 15.1239 10.9148 15.0462L18.6946 13.6317C18.795 13.6134 18.8793 13.5454 18.9182 13.451L21.2397 7.83162C21.4846 7.23888 21.0485 6.58746 20.4071 6.588L6.93521 6.59946Z" fill="white"/>
<path d="M8.09999 22.2C9.0941 22.2 9.89999 21.3941 9.89999 20.4C9.89999 19.4059 9.0941 18.6 8.09999 18.6C7.10588 18.6 6.29999 19.4059 6.29999 20.4C6.29999 21.3941 7.10588 22.2 8.09999 22.2Z" fill="white"/>
<path d="M18.9 22.2C19.8941 22.2 20.7 21.3941 20.7 20.4C20.7 19.4059 19.8941 18.6 18.9 18.6C17.9059 18.6 17.1 19.4059 17.1 20.4C17.1 21.3941 17.9059 22.2 18.9 22.2Z" fill="white"/>
</svg>
